<svg width="469" height="311" viewBox="0 0 469 311" fill="none" xmlns="http://www.w3.org/2000/svg">
<g clipPath="url(#clip0_186_2)">
<path d="M13.4127 222.003C6.24646 103.39 103.47 4.72707 222.176 10.1502L350.795 16.0262C400.065 18.2771 440.336 56.1153 445.649 105.15L448.656 132.899C459.057 228.898 377.364 309.574 281.502 297.969L49.17 269.845C29.9929 267.524 15.2147 251.829 14.0497 232.547L13.4127 222.003Z" fill="white"/>
<g clipPath="url(#clip1_186_2)">
<path d="M167.854 133.189C166.543 128.284 162.695 124.43 157.798 123.117C148.932 120.735 113.361 120.735 113.361 120.735C113.361 120.735 77.7911 120.735 68.9243 123.117C64.0275 124.43 60.1793 128.284 58.8684 133.189C56.4902 142.07 56.4902 160.61 56.4902 160.61C56.4902 160.61 56.4902 179.151 58.8684 188.032C60.1793 192.937 64.0275 196.791 68.9243 198.104C77.7911 200.486 113.361 200.486 113.361 200.486C113.361 200.486 148.932 200.486 157.798 198.104C162.695 196.791 166.543 192.937 167.854 188.032C170.232 179.151 170.232 160.61 170.232 160.61C170.232 160.61 170.223 142.07 167.854 133.189Z" fill="#FF0000"/>
<path d="M101.976 177.699L131.526 160.612L101.976 143.525V177.699Z" fill="white"/>
<path d="M194.248 172.587L181.477 126.391H192.619L197.095 147.332C198.237 152.49 199.07 156.888 199.613 160.527H199.941C200.315 157.92 201.158 153.55 202.46 147.407L207.094 126.391H218.236L205.306 172.587V194.748H194.239V172.587H194.248Z" fill="#282828"/>
<path d="M221.588 193.283C219.341 191.764 217.74 189.4 216.785 186.193C215.839 182.986 215.362 178.728 215.362 173.401V166.152C215.362 160.778 215.905 156.455 216.991 153.201C218.077 149.947 219.772 147.565 222.075 146.074C224.378 144.583 227.402 143.832 231.148 143.832C234.837 143.832 237.786 144.592 240.014 146.111C242.233 147.631 243.863 150.013 244.892 153.239C245.922 156.474 246.438 160.778 246.438 166.152V173.401C246.438 178.728 245.932 183.005 244.93 186.231C243.928 189.466 242.299 191.829 240.052 193.32C237.805 194.812 234.752 195.562 230.904 195.562C226.934 195.571 223.835 194.802 221.588 193.283ZM234.191 185.462C234.809 183.83 235.127 181.176 235.127 177.481V161.923C235.127 158.34 234.818 155.714 234.191 154.064C233.563 152.404 232.468 151.579 230.895 151.579C229.378 151.579 228.301 152.404 227.684 154.064C227.056 155.724 226.747 158.34 226.747 161.923V177.481C226.747 181.176 227.047 183.839 227.646 185.462C228.245 187.093 229.322 187.909 230.895 187.909C232.468 187.909 233.563 187.093 234.191 185.462Z" fill="#282828"/>
<path d="M282.682 194.757H273.899L272.925 188.643H272.682C270.294 193.257 266.718 195.563 261.943 195.563C258.637 195.563 256.194 194.476 254.621 192.31C253.048 190.134 252.261 186.739 252.261 182.125V144.81H263.488V181.468C263.488 183.7 263.731 185.285 264.218 186.233C264.705 187.18 265.519 187.658 266.661 187.658C267.635 187.658 268.572 187.358 269.471 186.758C270.37 186.157 271.025 185.398 271.465 184.479V144.8H282.682V194.757Z" fill="#282828"/>
<path d="M313.178 135.439H302.036V194.755H291.053V135.439H279.911V126.399H313.178V135.439Z" fill="#282828"/>
<path d="M340.255 194.757H331.472L330.499 188.643H330.255C327.868 193.257 324.291 195.563 319.516 195.563C316.211 195.563 313.767 194.476 312.194 192.31C310.621 190.134 309.834 186.739 309.834 182.125V144.81H321.061V181.468C321.061 183.7 321.304 185.285 321.791 186.233C322.278 187.18 323.092 187.658 324.235 187.658C325.208 187.658 326.145 187.358 327.044 186.758C327.943 186.157 328.598 185.398 329.038 184.479V144.8H340.255V194.757Z" fill="#282828"/>
<path d="M377.408 152.789C376.724 149.638 375.629 147.359 374.112 145.943C372.595 144.527 370.507 143.824 367.848 143.824C365.788 143.824 363.86 144.405 362.071 145.578C360.283 146.75 358.897 148.279 357.923 150.182H357.839V123.867H347.025V194.747H356.294L357.436 190.02H357.68C358.551 191.708 359.852 193.031 361.584 194.015C363.316 194.991 365.245 195.479 367.361 195.479C371.153 195.479 373.953 193.725 375.741 190.227C377.53 186.719 378.428 181.252 378.428 173.806V165.9C378.428 160.32 378.082 155.94 377.408 152.789ZM367.118 173.168C367.118 176.806 366.968 179.658 366.668 181.721C366.369 183.784 365.872 185.256 365.161 186.119C364.459 186.991 363.504 187.422 362.314 187.422C361.388 187.422 360.536 187.207 359.749 186.766C358.963 186.335 358.326 185.678 357.839 184.815V156.466C358.213 155.106 358.869 153.999 359.796 153.127C360.714 152.255 361.725 151.823 362.801 151.823C363.944 151.823 364.824 152.274 365.442 153.165C366.069 154.065 366.5 155.565 366.743 157.685C366.987 159.804 367.109 162.814 367.109 166.725V173.168H367.118Z" fill="#282828"/>
<path d="M394.355 176.047C394.355 179.254 394.448 181.655 394.636 183.259C394.823 184.862 395.216 186.025 395.815 186.766C396.414 187.497 397.332 187.863 398.577 187.863C400.253 187.863 401.414 187.207 402.032 185.903C402.66 184.6 402.997 182.424 403.053 179.386L412.734 179.957C412.79 180.389 412.818 180.989 412.818 181.749C412.818 186.363 411.554 189.814 409.036 192.093C406.517 194.372 402.95 195.516 398.343 195.516C392.81 195.516 388.933 193.781 386.714 190.301C384.486 186.822 383.381 181.449 383.381 174.171V165.449C383.381 157.957 384.533 152.48 386.836 149.029C389.14 145.578 393.081 143.852 398.671 143.852C402.519 143.852 405.478 144.555 407.538 145.971C409.598 147.387 411.049 149.582 411.892 152.574C412.734 155.565 413.156 159.691 413.156 164.962V173.515H394.355V176.047ZM395.778 152.508C395.206 153.211 394.832 154.365 394.636 155.968C394.448 157.572 394.355 160.001 394.355 163.265V166.847H402.566V163.265C402.566 160.057 402.454 157.628 402.238 155.968C402.023 154.308 401.63 153.146 401.058 152.461C400.487 151.786 399.607 151.439 398.418 151.439C397.22 151.448 396.34 151.805 395.778 152.508Z" fill="#282828"/>
</g>
</g>
<defs>
<clipPath id="clip0_186_2">
<rect width="469" height="311" fill="white"/>
</clipPath>
<clipPath id="clip1_186_2">
<rect width="356.665" height="79.7512" fill="white" transform="translate(56.4905 120.734)"/>
</clipPath>
</defs>
</svg>
